<svg viewBox="0 0 700 200" xmlns="http://www.w3.org/2000/svg" style="max-width:100%;border-radius:12px;background:#0d1117">
  <rect width="700" height="200" fill="#0d1117" rx="12"/>
  <text x="350" y="30" font-family="monospace" font-size="13" fill="#e2e8f0" text-anchor="middle" font-weight="bold">Cross-Contract Authorization Architecture</text>

  <!-- User box -->
  <rect x="20" y="60" width="100" height="80" rx="8" fill="#1e293b" stroke="#94a3b8" stroke-width="1.5"/>
  <text x="70" y="96" font-family="monospace" font-size="11" fill="#e2e8f0" text-anchor="middle">👤 User</text>
  <text x="70" y="112" font-family="monospace" font-size="9" fill="#94a3b8" text-anchor="middle">Wallet</text>

  <!-- Arrow User → Escrow -->
  <line x1="120" y1="100" x2="238" y2="100" stroke="#60a5fa" stroke-width="2"/>
  <polygon points="238,95 250,100 238,105" fill="#60a5fa"/>
  <text x="182" y="93" font-family="monospace" font-size="9" fill="#60a5fa" text-anchor="middle">withdraw()</text>

  <!-- Escrow box -->
  <rect x="250" y="60" width="140" height="80" rx="8" fill="#1e1b4b" stroke="#7c3aed" stroke-width="2"/>
  <text x="320" y="88" font-family="monospace" font-size="10" fill="#c4b5fd" text-anchor="middle">📦 Escrow</text>
  <text x="320" y="103" font-family="monospace" font-size="9" fill="#a78bfa" text-anchor="middle">CCQYG4...UCCR</text>
  <rect x="265" y="112" width="110" height="18" rx="4" fill="#312e81"/>
  <text x="320" y="125" font-family="monospace" font-size="8" fill="#e2e8f0" text-anchor="middle">check: now ≥ unlock_time</text>

  <!-- Arrow Escrow → Policy -->
  <line x1="390" y1="100" x2="498" y2="100" stroke="#f59e0b" stroke-width="2"/>
  <polygon points="498,95 510,100 498,105" fill="#f59e0b"/>
  <text x="447" y="93" font-family="monospace" font-size="9" fill="#f59e0b" text-anchor="middle">is_auth(user)</text>

  <!-- Policy box -->
  <rect x="510" y="60" width="160" height="80" rx="8" fill="#1c1008" stroke="#d97706" stroke-width="2"/>
  <text x="590" y="88" font-family="monospace" font-size="10" fill="#fcd34d" text-anchor="middle">🔑 Policy</text>
  <text x="590" y="103" font-family="monospace" font-size="9" fill="#fbbf24" text-anchor="middle">CCIHX5...U7VE</text>
  <rect x="525" y="112" width="130" height="18" rx="4" fill="#78350f"/>
  <text x="590" y="125" font-family="monospace" font-size="8" fill="#fde68a" text-anchor="middle">returns: true / false</text>

  <!-- Return arrow Policy → Escrow -->
  <line x1="510" y1="152" x2="395" y2="152" stroke="#34d399" stroke-width="1.5" stroke-dasharray="5,3"/>
  <polygon points="395,147 383,152 395,157" fill="#34d399"/>
  <text x="450" y="168" font-family="monospace" font-size="9" fill="#34d399" text-anchor="middle">true → release funds</text>

  <!-- Return arrow Escrow → User -->
  <line x1="250" y1="152" x2="125" y2="152" stroke="#34d399" stroke-width="1.5" stroke-dasharray="5,3"/>
  <polygon points="125,147 113,152 125,157" fill="#34d399"/>
  <text x="185" y="168" font-family="monospace" font-size="9" fill="#34d399" text-anchor="middle">XLM transferred ✅</text>
</svg>
